<svg width="56" height="52" viewBox="0 0 56 52" fill="none" xmlns="http://www.w3.org/2000/svg">
<g filter="url(#filter0_f_37_292)">
<path d="M47.9906 19.4507C47.9953 19.4233 47.9979 19.3967 47.9993 19.3687C48.0006 19.336 47.9999 19.3046 47.9973 19.272C47.9946 19.244 47.9906 19.2173 47.9839 19.1899C47.9766 19.1579 47.9666 19.1273 47.9546 19.0966C47.9486 19.0806 47.9473 19.0639 47.9399 19.0486C47.9346 19.0372 47.9253 19.0286 47.9193 19.0172C47.9133 19.0059 47.9106 18.9939 47.9039 18.9826L41.2357 8.31341C41.205 8.26473 41.169 8.22072 41.1283 8.18204L41.1263 8.18071C41.069 8.1267 41.001 8.08802 40.9283 8.05735C40.919 8.05335 40.913 8.04534 40.903 8.04134C40.8956 8.03868 40.8876 8.04001 40.8803 8.03801C40.8129 8.01534 40.7436 8 40.6709 8H15.3317C15.2596 8 15.191 8.01534 15.1249 8.03734C15.1176 8.03934 15.1103 8.03801 15.1036 8.04068C15.0936 8.04401 15.0876 8.05201 15.0783 8.05601C15.0089 8.08469 14.9436 8.12203 14.8869 8.17271C14.8835 8.17604 14.8789 8.17804 14.8755 8.18071C14.8342 8.21938 14.7975 8.26406 14.7669 8.31274L8.09863 18.9819C8.09196 18.9926 8.08929 19.0052 8.08329 19.0166C8.07729 19.0279 8.06796 19.0366 8.06262 19.0479C8.05529 19.0632 8.05395 19.0799 8.04728 19.0959C8.03528 19.1266 8.02528 19.1573 8.01794 19.1893C8.01194 19.2166 8.00727 19.244 8.00461 19.272C7.99994 19.3046 7.99927 19.3366 8.00061 19.3687C8.00194 19.3967 8.00461 19.4233 8.00928 19.4507C8.01461 19.4827 8.02328 19.514 8.03395 19.5454C8.04262 19.5714 8.05195 19.5967 8.06395 19.622C8.06996 19.634 8.07196 19.6474 8.07862 19.6594C8.08929 19.6787 8.1053 19.6934 8.1173 19.7114C8.12664 19.7254 8.13197 19.7407 8.14331 19.7541L27.4738 43.7503C27.4752 43.7523 27.4765 43.7537 27.4778 43.755L27.4812 43.7597C27.4832 43.7623 27.4865 43.763 27.4885 43.7657C27.5432 43.8317 27.6112 43.8817 27.6852 43.9217C27.7052 43.9324 27.7239 43.9417 27.7445 43.9504C27.8252 43.9844 27.9106 44.0084 27.9999 44.0084C28.076 44.0084 28.1526 43.9951 28.2287 43.9677C28.24 43.9637 28.2473 43.9544 28.2587 43.9497C28.2927 43.9357 28.3193 43.913 28.35 43.8937C28.4007 43.8617 28.448 43.8284 28.4874 43.785C28.4967 43.775 28.5107 43.7703 28.5194 43.7597L47.8572 19.7541C47.8679 19.7407 47.8732 19.7247 47.8832 19.7114C47.8959 19.6934 47.9113 19.6787 47.9219 19.6594C47.9286 19.6474 47.9306 19.634 47.9366 19.622C47.9486 19.5967 47.9579 19.572 47.9666 19.5454C47.9759 19.514 47.9853 19.4833 47.9906 19.4507ZM29.4016 9.33431H39.71L36.4692 18.033L29.4016 9.33431ZM35.2676 18.6698H20.7329L27.9999 9.72574L35.2676 18.6698ZM19.484 18.091L16.2839 9.33431H26.5989L19.484 18.091ZM35.7351 20.0035L27.8832 41.0791L20.1821 20.0035H35.7351ZM40.8216 10.1698L46.1342 18.6705H37.6549L40.8216 10.1698ZM15.1723 10.1785L18.275 18.6698H9.86571L15.1723 10.1785ZM18.7625 20.0035L25.9901 39.7841L10.0558 20.0035H18.7625ZM29.5983 40.2949L37.1581 20.0035H45.9441L29.5983 40.2949Z" fill="#FFEA00"/>
</g>
<path d="M47.9906 19.4507C47.9953 19.4233 47.9979 19.3967 47.9993 19.3687C48.0006 19.336 47.9999 19.3046 47.9973 19.272C47.9946 19.244 47.9906 19.2173 47.9839 19.1899C47.9766 19.1579 47.9666 19.1273 47.9546 19.0966C47.9486 19.0806 47.9473 19.0639 47.9399 19.0486C47.9346 19.0372 47.9253 19.0286 47.9193 19.0172C47.9133 19.0059 47.9106 18.9939 47.9039 18.9826L41.2357 8.31341C41.205 8.26473 41.169 8.22072 41.1283 8.18204L41.1263 8.18071C41.069 8.1267 41.001 8.08802 40.9283 8.05735C40.919 8.05335 40.913 8.04534 40.903 8.04134C40.8956 8.03868 40.8876 8.04001 40.8803 8.03801C40.8129 8.01534 40.7436 8 40.6709 8H15.3317C15.2596 8 15.191 8.01534 15.1249 8.03734C15.1176 8.03934 15.1103 8.03801 15.1036 8.04068C15.0936 8.04401 15.0876 8.05201 15.0783 8.05601C15.0089 8.08469 14.9436 8.12203 14.8869 8.17271C14.8835 8.17604 14.8789 8.17804 14.8755 8.18071C14.8342 8.21938 14.7975 8.26406 14.7669 8.31274L8.09863 18.9819C8.09196 18.9926 8.08929 19.0052 8.08329 19.0166C8.07729 19.0279 8.06796 19.0366 8.06262 19.0479C8.05529 19.0632 8.05395 19.0799 8.04728 19.0959C8.03528 19.1266 8.02528 19.1573 8.01794 19.1893C8.01194 19.2166 8.00727 19.244 8.00461 19.272C7.99994 19.3046 7.99927 19.3366 8.00061 19.3687C8.00194 19.3967 8.00461 19.4233 8.00928 19.4507C8.01461 19.4827 8.02328 19.514 8.03395 19.5454C8.04262 19.5714 8.05195 19.5967 8.06395 19.622C8.06996 19.634 8.07196 19.6474 8.07862 19.6594C8.08929 19.6787 8.1053 19.6934 8.1173 19.7114C8.12664 19.7254 8.13197 19.7407 8.14331 19.7541L27.4738 43.7503C27.4752 43.7523 27.4765 43.7537 27.4778 43.755L27.4812 43.7597C27.4832 43.7623 27.4865 43.763 27.4885 43.7657C27.5432 43.8317 27.6112 43.8817 27.6852 43.9217C27.7052 43.9324 27.7239 43.9417 27.7445 43.9504C27.8252 43.9844 27.9106 44.0084 27.9999 44.0084C28.076 44.0084 28.1526 43.9951 28.2287 43.9677C28.24 43.9637 28.2473 43.9544 28.2587 43.9497C28.2927 43.9357 28.3193 43.913 28.35 43.8937C28.4007 43.8617 28.448 43.8284 28.4874 43.785C28.4967 43.775 28.5107 43.7703 28.5194 43.7597L47.8572 19.7541C47.8679 19.7407 47.8732 19.7247 47.8832 19.7114C47.8959 19.6934 47.9113 19.6787 47.9219 19.6594C47.9286 19.6474 47.9306 19.634 47.9366 19.622C47.9486 19.5967 47.9579 19.572 47.9666 19.5454C47.9759 19.514 47.9853 19.4833 47.9906 19.4507ZM29.4016 9.33431H39.71L36.4692 18.033L29.4016 9.33431ZM35.2676 18.6698H20.7329L27.9999 9.72574L35.2676 18.6698ZM19.484 18.091L16.2839 9.33431H26.5989L19.484 18.091ZM35.7351 20.0035L27.8832 41.0791L20.1821 20.0035H35.7351ZM40.8216 10.1698L46.1342 18.6705H37.6549L40.8216 10.1698ZM15.1723 10.1785L18.275 18.6698H9.86571L15.1723 10.1785ZM18.7625 20.0035L25.9901 39.7841L10.0558 20.0035H18.7625ZM29.5983 40.2949L37.1581 20.0035H45.9441L29.5983 40.2949Z" fill="#FFEA00"/>
<defs>
<filter id="filter0_f_37_292" x="0" y="0" width="56" height="52.0083" filterUnits="userSpaceOnUse" color-interpolation-filters="sRGB">
<feFlood flood-opacity="0" result="BackgroundImageFix"/>
<feBlend mode="normal" in="SourceGraphic" in2="BackgroundImageFix" result="shape"/>
<feGaussianBlur stdDeviation="4" result="effect1_foregroundBlur_37_292"/>
</filter>
</defs>
</svg>
