<svg width="56" height="56" viewBox="0 0 56 56" fill="none" xmlns="http://www.w3.org/2000/svg">
<g filter="url(#filter0_f_37_265)">
<path d="M47.9231 44.3548L46.7532 42.1272L47.9231 39.8996C48.0253 39.7053 48.0253 39.4732 47.9231 39.2788L46.7532 37.0559L47.9231 34.8335C48.0253 34.6392 48.0253 34.4067 47.9231 34.2125L46.7532 31.9904L47.9231 29.7675C48.0253 29.5732 48.0253 29.3407 47.9231 29.1464L46.7532 26.9237L47.9231 24.7011C48.0253 24.5068 48.0253 24.2743 47.9231 24.08L46.7532 21.8583L47.9231 19.6382C48.0592 19.379 48.011 19.0617 47.804 18.8553L45.1354 16.1945C44.9284 15.9881 44.612 15.9406 44.3548 16.0763L42.1269 17.2469L39.9999 16.1293V8.66664C39.9999 8.29844 39.7017 8 39.3333 8H8.66664C8.2982 8 8 8.29852 8 8.66664V39.3332C8 39.7014 8.2982 39.9999 8.66664 39.9999H16.1229L17.2467 42.134L16.0768 44.3541C15.9407 44.6125 15.9883 44.9289 16.1946 45.1356L18.8554 47.8039C18.9837 47.9325 19.1542 47.9998 19.3274 47.9998C19.4329 47.9998 19.5397 47.9748 19.6373 47.9234L21.8652 46.7528L24.0924 47.9234C24.2864 48.0255 24.5188 48.0252 24.7129 47.923L26.9361 46.7528L29.1588 47.923C29.3528 48.0252 29.5859 48.0252 29.7799 47.923L32.0019 46.7531L34.2246 47.923C34.4185 48.0252 34.6517 48.0252 34.8457 47.923L37.0683 46.7528L39.291 47.923C39.4849 48.0252 39.7181 48.0252 39.912 47.923L42.1334 46.7531L44.3541 47.923C44.6106 48.0591 44.9289 48.0116 45.1359 47.8045L47.8045 45.1363C48.011 44.9299 48.0591 44.6132 47.9231 44.3548ZM16.0769 24.7132L17.2468 26.9361L16.0769 29.1588C15.9747 29.3531 15.9747 29.5856 16.0769 29.7799L17.2468 32.0019L16.0769 34.2246C15.9747 34.4189 15.9747 34.6514 16.0769 34.8457L17.2468 37.0686L16.4057 38.6666H9.33336V9.33336H38.6667V16.399L37.056 17.2471L34.8333 16.0769C34.6393 15.9747 34.4062 15.9747 34.2122 16.0769L31.9902 17.2468L29.7675 16.0769C29.5736 15.9747 29.3404 15.9747 29.1464 16.0769L26.9238 17.2471L24.7011 16.0769C24.5072 15.9747 24.274 15.9747 24.08 16.0769L21.858 17.2468L19.6379 16.0769C19.3821 15.9408 19.0631 15.988 18.8561 16.1954L16.1953 18.8562C15.9889 19.0626 15.9408 19.3793 16.0768 19.6377L17.2467 21.8649L16.0768 24.0925C15.9746 24.2868 15.9746 24.5189 16.0769 24.7132ZM45.4101 27.2343L46.58 29.457L45.4101 31.68C45.3079 31.8743 45.3079 32.1068 45.4101 32.301L46.58 34.5231L45.4101 36.7454C45.3079 36.9397 45.3079 37.1722 45.4101 37.3665L46.58 39.5898L45.4101 41.817C45.3079 42.0113 45.3079 42.2431 45.4101 42.4374L46.5149 44.5406L44.5409 46.5146L42.4439 45.4098C42.2499 45.3076 42.0168 45.3076 41.8228 45.4098L39.6015 46.5797L37.3788 45.4098C37.1849 45.3076 36.9517 45.3076 36.7578 45.4098L34.5351 46.58L32.3125 45.4098C32.1185 45.3076 31.8853 45.3076 31.6914 45.4098L29.4693 46.5797L27.2467 45.4098C27.0527 45.3076 26.8196 45.3076 26.6256 45.4098L24.4023 46.58L22.1751 45.4095C22.0781 45.3584 21.972 45.333 21.8652 45.333C21.7584 45.333 21.6523 45.3584 21.5553 45.4095L19.4524 46.5146L17.485 44.5416L18.5898 42.445C18.692 42.2503 18.692 42.0179 18.5898 41.8236L17.4199 39.6019L18.5898 37.3792C18.692 37.1849 18.692 36.9524 18.5898 36.7581L17.4199 34.5352L18.5898 32.3125C18.692 32.1182 18.692 31.8857 18.5898 31.6914L17.4199 29.4694L18.5898 27.2468C18.692 27.0525 18.692 26.82 18.5898 26.6257L17.4199 24.4024L18.5898 22.1752C18.692 21.9809 18.692 21.7491 18.5898 21.5547L17.485 19.4519L19.4511 17.4857L21.5475 18.5902C21.7415 18.6924 21.9746 18.6924 22.1686 18.5902L24.3906 17.4203L26.6132 18.5902C26.8072 18.6924 27.0404 18.6924 27.2343 18.5902L29.457 17.42L31.6796 18.5902C31.8736 18.6924 32.1068 18.6924 32.3007 18.5902L34.5228 17.4203L36.7454 18.5902C36.9394 18.6924 37.1725 18.6924 37.3665 18.5902L39.5892 17.42L41.817 18.5905C42.011 18.6927 42.2428 18.6927 42.4368 18.5905L44.5409 17.4847L46.5142 19.4522L45.4101 21.5476C45.3079 21.7422 45.3079 21.9747 45.4101 22.169L46.58 24.3907L45.4101 26.6133C45.3079 26.8075 45.3079 27.04 45.4101 27.2343Z" fill="#FFEA00"/>
</g>
<path d="M47.9231 44.3548L46.7532 42.1272L47.9231 39.8996C48.0253 39.7053 48.0253 39.4732 47.9231 39.2788L46.7532 37.0559L47.9231 34.8335C48.0253 34.6392 48.0253 34.4067 47.9231 34.2125L46.7532 31.9904L47.9231 29.7675C48.0253 29.5732 48.0253 29.3407 47.9231 29.1464L46.7532 26.9237L47.9231 24.7011C48.0253 24.5068 48.0253 24.2743 47.9231 24.08L46.7532 21.8583L47.9231 19.6382C48.0592 19.379 48.011 19.0617 47.804 18.8553L45.1354 16.1945C44.9284 15.9881 44.612 15.9406 44.3548 16.0763L42.1269 17.2469L39.9999 16.1293V8.66664C39.9999 8.29844 39.7017 8 39.3333 8H8.66664C8.2982 8 8 8.29852 8 8.66664V39.3332C8 39.7014 8.2982 39.9999 8.66664 39.9999H16.1229L17.2467 42.134L16.0768 44.3541C15.9407 44.6125 15.9883 44.9289 16.1946 45.1356L18.8554 47.8039C18.9837 47.9325 19.1542 47.9998 19.3274 47.9998C19.4329 47.9998 19.5397 47.9748 19.6373 47.9234L21.8652 46.7528L24.0924 47.9234C24.2864 48.0255 24.5188 48.0252 24.7129 47.923L26.9361 46.7528L29.1588 47.923C29.3528 48.0252 29.5859 48.0252 29.7799 47.923L32.0019 46.7531L34.2246 47.923C34.4185 48.0252 34.6517 48.0252 34.8457 47.923L37.0683 46.7528L39.291 47.923C39.4849 48.0252 39.7181 48.0252 39.912 47.923L42.1334 46.7531L44.3541 47.923C44.6106 48.0591 44.9289 48.0116 45.1359 47.8045L47.8045 45.1363C48.011 44.9299 48.0591 44.6132 47.9231 44.3548ZM16.0769 24.7132L17.2468 26.9361L16.0769 29.1588C15.9747 29.3531 15.9747 29.5856 16.0769 29.7799L17.2468 32.0019L16.0769 34.2246C15.9747 34.4189 15.9747 34.6514 16.0769 34.8457L17.2468 37.0686L16.4057 38.6666H9.33336V9.33336H38.6667V16.399L37.056 17.2471L34.8333 16.0769C34.6393 15.9747 34.4062 15.9747 34.2122 16.0769L31.9902 17.2468L29.7675 16.0769C29.5736 15.9747 29.3404 15.9747 29.1464 16.0769L26.9238 17.2471L24.7011 16.0769C24.5072 15.9747 24.274 15.9747 24.08 16.0769L21.858 17.2468L19.6379 16.0769C19.3821 15.9408 19.0631 15.988 18.8561 16.1954L16.1953 18.8562C15.9889 19.0626 15.9408 19.3793 16.0768 19.6377L17.2467 21.8649L16.0768 24.0925C15.9746 24.2868 15.9746 24.5189 16.0769 24.7132ZM45.4101 27.2343L46.58 29.457L45.4101 31.68C45.3079 31.8743 45.3079 32.1068 45.4101 32.301L46.58 34.5231L45.4101 36.7454C45.3079 36.9397 45.3079 37.1722 45.4101 37.3665L46.58 39.5898L45.4101 41.817C45.3079 42.0113 45.3079 42.2431 45.4101 42.4374L46.5149 44.5406L44.5409 46.5146L42.4439 45.4098C42.2499 45.3076 42.0168 45.3076 41.8228 45.4098L39.6015 46.5797L37.3788 45.4098C37.1849 45.3076 36.9517 45.3076 36.7578 45.4098L34.5351 46.58L32.3125 45.4098C32.1185 45.3076 31.8853 45.3076 31.6914 45.4098L29.4693 46.5797L27.2467 45.4098C27.0527 45.3076 26.8196 45.3076 26.6256 45.4098L24.4023 46.58L22.1751 45.4095C22.0781 45.3584 21.972 45.333 21.8652 45.333C21.7584 45.333 21.6523 45.3584 21.5553 45.4095L19.4524 46.5146L17.485 44.5416L18.5898 42.445C18.692 42.2503 18.692 42.0179 18.5898 41.8236L17.4199 39.6019L18.5898 37.3792C18.692 37.1849 18.692 36.9524 18.5898 36.7581L17.4199 34.5352L18.5898 32.3125C18.692 32.1182 18.692 31.8857 18.5898 31.6914L17.4199 29.4694L18.5898 27.2468C18.692 27.0525 18.692 26.82 18.5898 26.6257L17.4199 24.4024L18.5898 22.1752C18.692 21.9809 18.692 21.7491 18.5898 21.5547L17.485 19.4519L19.4511 17.4857L21.5475 18.5902C21.7415 18.6924 21.9746 18.6924 22.1686 18.5902L24.3906 17.4203L26.6132 18.5902C26.8072 18.6924 27.0404 18.6924 27.2343 18.5902L29.457 17.42L31.6796 18.5902C31.8736 18.6924 32.1068 18.6924 32.3007 18.5902L34.5228 17.4203L36.7454 18.5902C36.9394 18.6924 37.1725 18.6924 37.3665 18.5902L39.5892 17.42L41.817 18.5905C42.011 18.6927 42.2428 18.6927 42.4368 18.5905L44.5409 17.4847L46.5142 19.4522L45.4101 21.5476C45.3079 21.7422 45.3079 21.9747 45.4101 22.169L46.58 24.3907L45.4101 26.6133C45.3079 26.8075 45.3079 27.04 45.4101 27.2343Z" fill="#FFEA00"/>
<defs>
<filter id="filter0_f_37_265" x="0" y="0" width="55.9998" height="56" filterUnits="userSpaceOnUse" color-interpolation-filters="sRGB">
<feFlood flood-opacity="0" result="BackgroundImageFix"/>
<feBlend mode="normal" in="SourceGraphic" in2="BackgroundImageFix" result="shape"/>
<feGaussianBlur stdDeviation="4" result="effect1_foregroundBlur_37_265"/>
</filter>
</defs>
</svg>
