<svg width="56" height="56" viewBox="0 0 56 56" fill="none" xmlns="http://www.w3.org/2000/svg">
<g filter="url(#filter0_f_28_159)">
<path d="M47.1065 8.8933C45.2743 7.06103 40.9262 8.13588 35.5916 11.3078C33.2784 10.2538 30.7076 9.66596 28.0001 9.66596C17.8744 9.66596 9.66647 17.8745 9.66647 27.9996C9.66647 30.7084 10.2537 33.2792 11.3083 35.5912C8.13577 40.9256 7.06155 45.2738 8.89256 47.106C10.7261 48.9383 15.0742 47.8641 20.4075 44.6915C22.7207 45.7449 25.2915 46.3334 28.0002 46.3334C38.1247 46.3334 46.3339 38.1254 46.3339 27.9997C46.3339 25.2922 45.7455 22.7214 44.6908 20.4088C47.8647 15.0742 48.9389 10.7256 47.1065 8.8933ZM17.8768 44.2033C13.5703 46.4798 10.8542 46.7092 10.0718 45.928C9.28928 45.1455 9.52006 42.4296 11.7966 38.1217C11.9321 37.8641 12.0749 37.6028 12.2215 37.3404C13.4715 39.4461 15.1304 41.2821 17.0896 42.7347C17.0933 42.7323 17.0957 42.7323 17.0981 42.7299C17.6206 42.454 18.154 42.1537 18.696 41.8314C17.8097 41.2345 16.9809 40.5509 16.2143 39.7855C14.6835 38.2535 13.4812 36.47 12.6425 34.4864C11.7733 32.432 11.3326 30.2506 11.3326 27.9996C11.3326 25.7487 11.7733 23.566 12.6425 21.5128C13.4811 19.528 14.6835 17.7458 16.2143 16.2144C17.7462 14.683 19.5285 13.4813 21.5133 12.6421C23.5665 11.7735 25.7491 11.3328 28.0001 11.3328C30.2511 11.3328 32.4325 11.7735 34.4869 12.6421C36.4706 13.4813 38.254 14.6831 39.7848 16.2144C40.5513 16.9804 41.2349 17.8099 41.8319 18.6961C42.1541 18.1535 42.4544 17.6201 42.7303 17.0982C42.7315 17.0952 42.7327 17.0928 42.7351 17.0897C41.2813 15.1305 39.4465 13.4716 37.3408 12.2216C37.6033 12.0745 37.8645 11.9323 38.1221 11.7962C42.4287 9.51955 45.146 9.28947 45.9285 10.0713C46.7098 10.8538 46.4802 13.5705 44.2037 17.8771C43.0342 20.0903 41.4669 22.4785 39.5455 24.9761C37.5411 27.5823 35.2425 30.1861 32.7144 32.7142C30.1851 35.2422 27.5813 37.5408 24.9764 39.5464C22.4788 41.4666 20.0899 43.034 17.8768 44.2033ZM43.3578 34.4864C42.518 36.4701 41.3168 38.2535 39.7848 39.7855C38.254 41.3163 36.4706 42.5174 34.487 43.3573C32.4326 44.2263 30.25 44.6658 28.0002 44.6658C25.9787 44.6658 24.0123 44.3094 22.1445 43.6063C25.8457 41.1892 29.9142 37.8702 33.8925 33.8919C37.8708 29.9136 41.1898 25.8444 43.608 22.1432C44.31 24.011 44.6664 25.9775 44.6664 27.9996C44.6664 30.2506 44.2257 32.432 43.3578 34.4864Z" fill="#FFEA00"/>
</g>
<path d="M47.1065 8.8933C45.2743 7.06103 40.9262 8.13588 35.5916 11.3078C33.2784 10.2538 30.7076 9.66596 28.0001 9.66596C17.8744 9.66596 9.66647 17.8745 9.66647 27.9996C9.66647 30.7084 10.2537 33.2792 11.3083 35.5912C8.13577 40.9256 7.06155 45.2738 8.89256 47.106C10.7261 48.9383 15.0742 47.8641 20.4075 44.6915C22.7207 45.7449 25.2915 46.3334 28.0002 46.3334C38.1247 46.3334 46.3339 38.1254 46.3339 27.9997C46.3339 25.2922 45.7455 22.7214 44.6908 20.4088C47.8647 15.0742 48.9389 10.7256 47.1065 8.8933ZM17.8768 44.2033C13.5703 46.4798 10.8542 46.7092 10.0718 45.928C9.28928 45.1455 9.52006 42.4296 11.7966 38.1217C11.9321 37.8641 12.0749 37.6028 12.2215 37.3404C13.4715 39.4461 15.1304 41.2821 17.0896 42.7347C17.0933 42.7323 17.0957 42.7323 17.0981 42.7299C17.6206 42.454 18.154 42.1537 18.696 41.8314C17.8097 41.2345 16.9809 40.5509 16.2143 39.7855C14.6835 38.2535 13.4812 36.47 12.6425 34.4864C11.7733 32.432 11.3326 30.2506 11.3326 27.9996C11.3326 25.7487 11.7733 23.566 12.6425 21.5128C13.4811 19.528 14.6835 17.7458 16.2143 16.2144C17.7462 14.683 19.5285 13.4813 21.5133 12.6421C23.5665 11.7735 25.7491 11.3328 28.0001 11.3328C30.2511 11.3328 32.4325 11.7735 34.4869 12.6421C36.4706 13.4813 38.254 14.6831 39.7848 16.2144C40.5513 16.9804 41.2349 17.8099 41.8319 18.6961C42.1541 18.1535 42.4544 17.6201 42.7303 17.0982C42.7315 17.0952 42.7327 17.0928 42.7351 17.0897C41.2813 15.1305 39.4465 13.4716 37.3408 12.2216C37.6033 12.0745 37.8645 11.9323 38.1221 11.7962C42.4287 9.51955 45.146 9.28947 45.9285 10.0713C46.7098 10.8538 46.4802 13.5705 44.2037 17.8771C43.0342 20.0903 41.4669 22.4785 39.5455 24.9761C37.5411 27.5823 35.2425 30.1861 32.7144 32.7142C30.1851 35.2422 27.5813 37.5408 24.9764 39.5464C22.4788 41.4666 20.0899 43.034 17.8768 44.2033ZM43.3578 34.4864C42.518 36.4701 41.3168 38.2535 39.7848 39.7855C38.254 41.3163 36.4706 42.5174 34.487 43.3573C32.4326 44.2263 30.25 44.6658 28.0002 44.6658C25.9787 44.6658 24.0123 44.3094 22.1445 43.6063C25.8457 41.1892 29.9142 37.8702 33.8925 33.8919C37.8708 29.9136 41.1898 25.8444 43.608 22.1432C44.31 24.011 44.6664 25.9775 44.6664 27.9996C44.6664 30.2506 44.2257 32.432 43.3578 34.4864Z" fill="#FFEA00"/>
<defs>
<filter id="filter0_f_28_159" x="0" y="0" width="56" height="55.9995" filterUnits="userSpaceOnUse" color-interpolation-filters="sRGB">
<feFlood flood-opacity="0" result="BackgroundImageFix"/>
<feBlend mode="normal" in="SourceGraphic" in2="BackgroundImageFix" result="shape"/>
<feGaussianBlur stdDeviation="4" result="effect1_foregroundBlur_28_159"/>
</filter>
</defs>
</svg>
