<svg width="54" height="54" viewBox="0 0 54 54" fill="none" xmlns="http://www.w3.org/2000/svg">
<g filter="url(#filter0_f_28_208)">
<path d="M20.994 8.20727C20.9489 8.16368 20.8982 8.12624 20.8433 8.09591C20.8302 8.08819 20.8176 8.08128 20.8026 8.07437C20.748 8.04642 20.6899 8.02579 20.6299 8.01301C20.6262 8.01301 20.6226 8.01301 20.6185 8.01301C20.5759 8.00473 20.5326 8.00038 20.4893 8H13.0969C13.053 8.00032 13.0091 8.00481 12.966 8.01341H12.9563C12.8961 8.0262 12.8379 8.04698 12.7831 8.07519C12.7701 8.08169 12.7575 8.0886 12.7445 8.09591C12.6897 8.12652 12.639 8.16408 12.5938 8.20768L8.20849 12.5929C8.07509 12.7263 8.00009 12.9071 8 13.0957V39.5463C8.00122 40.1922 8.21765 40.8194 8.6151 41.3286C9.01254 41.8379 9.56833 42.2002 10.1947 42.3583V45.2878C10.1947 45.4764 10.2696 45.6573 10.403 45.7907C10.5364 45.9241 10.7173 45.999 10.9059 45.999C11.0945 45.999 11.2754 45.9241 11.4088 45.7907C11.5422 45.6573 11.6171 45.4764 11.6171 45.2878V42.3583C12.2435 42.2002 12.7993 41.8379 13.1967 41.3286C13.5941 40.8194 13.8106 40.1922 13.8118 39.5463V13.8069H19.7797V39.5463C19.7808 40.192 19.9969 40.8189 20.3939 41.3281C20.791 41.8373 21.3463 42.1998 21.9723 42.3583V45.2878C21.9723 45.4764 22.0472 45.6573 22.1806 45.7907C22.314 45.9241 22.4949 45.999 22.6835 45.999C22.8722 45.999 23.0531 45.9241 23.1864 45.7907C23.3198 45.6573 23.3948 45.4764 23.3948 45.2878V42.3583C24.0211 42.2001 24.5768 41.8378 24.9742 41.3286C25.3717 40.8193 25.5881 40.1922 25.5894 39.5463V13.0957C25.5893 12.9071 25.5143 12.7263 25.3809 12.5929L20.994 8.20727ZM12.3857 39.5463C12.3792 39.935 12.2203 40.3056 11.9432 40.5782C11.666 40.8508 11.2928 41.0035 10.9041 41.0035C10.5153 41.0035 10.1421 40.8508 9.86499 40.5782C9.58783 40.3056 9.42891 39.935 9.42247 39.5463V13.3903L12.3857 10.4271V39.5463ZM13.8081 12.3845V9.42125H19.7797V12.3845H13.8081ZM24.1653 39.5463C24.1589 39.935 24 40.3056 23.7228 40.5782C23.4457 40.8508 23.0725 41.0035 22.6837 41.0035C22.295 41.0035 21.9218 40.8508 21.6446 40.5782C21.3675 40.3056 21.2086 39.935 21.2021 39.5463V10.4271L24.1653 13.3903V39.5463Z" fill="#FFEA00"/>
<path d="M45.7917 12.5929L41.4064 8.20727C41.3614 8.16369 41.3108 8.12624 41.256 8.09591C41.2426 8.08819 41.23 8.08128 41.2154 8.07437C41.1609 8.04648 41.1029 8.02585 41.0431 8.01301H41.0313C40.9887 8.00473 40.9454 8.00038 40.902 8H33.5093C33.4653 8.00033 33.4215 8.00483 33.3784 8.01341H33.369C33.3087 8.02617 33.2503 8.04694 33.1955 8.07519C33.1825 8.08169 33.1699 8.0886 33.1573 8.09591C33.1022 8.12641 33.0514 8.16399 33.0061 8.20768L28.6208 12.5929C28.4874 12.7263 28.4124 12.9071 28.4124 13.0957V39.5463C28.4136 40.1922 28.63 40.8194 29.0274 41.3286C29.4249 41.8379 29.9807 42.2002 30.607 42.3583V45.2878C30.607 45.4764 30.682 45.6573 30.8153 45.7907C30.9487 45.9241 31.1296 45.999 31.3183 45.999C31.5069 45.999 31.6878 45.9241 31.8212 45.7907C31.9546 45.6573 32.0295 45.4764 32.0295 45.2878V42.3583C32.6558 42.2002 33.2116 41.8379 33.6091 41.3286C34.0065 40.8194 34.2229 40.1922 34.2242 39.5463V13.8069H40.192V39.5463C40.1931 40.192 40.4093 40.8189 40.8063 41.3281C41.2034 41.8373 41.7587 42.1998 42.3846 42.3583V45.2878C42.3846 45.4764 42.4596 45.6573 42.593 45.7907C42.7263 45.9241 42.9072 45.999 43.0959 45.999C43.2845 45.999 43.4654 45.9241 43.5988 45.7907C43.7322 45.6573 43.8071 45.4764 43.8071 45.2878V42.3583C44.4334 42.2002 44.9892 41.8379 45.3867 41.3286C45.7841 40.8194 46.0005 40.1922 46.0018 39.5463V13.0957C46.0015 13.0022 45.9828 12.9097 45.9468 12.8234C45.9107 12.7371 45.858 12.6588 45.7917 12.5929ZM32.798 39.5463C32.7916 39.935 32.6327 40.3056 32.3555 40.5782C32.0784 40.8508 31.7052 41.0035 31.3164 41.0035C30.9277 41.0035 30.5545 40.8508 30.2773 40.5782C30.0002 40.3056 29.8413 39.935 29.8348 39.5463V13.3903L32.798 10.4271V39.5463ZM34.2205 12.3845V9.42125H40.192V12.3845H34.2205ZM44.5777 39.5463C44.5712 39.935 44.4123 40.3056 44.1352 40.5782C43.858 40.8508 43.4848 41.0035 43.0961 41.0035C42.7073 41.0035 42.3342 40.8508 42.057 40.5782C41.7798 40.3056 41.6209 39.935 41.6145 39.5463V10.4271L44.5777 13.3903V39.5463Z" fill="#FFEA00"/>
</g>
<path d="M20.994 8.20727C20.9489 8.16368 20.8982 8.12624 20.8433 8.09591C20.8302 8.08819 20.8176 8.08128 20.8026 8.07437C20.748 8.04642 20.6899 8.02579 20.6299 8.01301C20.6262 8.01301 20.6226 8.01301 20.6185 8.01301C20.5759 8.00473 20.5326 8.00038 20.4893 8H13.0969C13.053 8.00032 13.0091 8.00481 12.966 8.01341H12.9563C12.8961 8.0262 12.8379 8.04698 12.7831 8.07519C12.7701 8.08169 12.7575 8.0886 12.7445 8.09591C12.6897 8.12652 12.639 8.16408 12.5938 8.20768L8.20849 12.5929C8.07509 12.7263 8.00009 12.9071 8 13.0957V39.5463C8.00122 40.1922 8.21765 40.8194 8.6151 41.3286C9.01254 41.8379 9.56833 42.2002 10.1947 42.3583V45.2878C10.1947 45.4764 10.2696 45.6573 10.403 45.7907C10.5364 45.9241 10.7173 45.999 10.9059 45.999C11.0945 45.999 11.2754 45.9241 11.4088 45.7907C11.5422 45.6573 11.6171 45.4764 11.6171 45.2878V42.3583C12.2435 42.2002 12.7993 41.8379 13.1967 41.3286C13.5941 40.8194 13.8106 40.1922 13.8118 39.5463V13.8069H19.7797V39.5463C19.7808 40.192 19.9969 40.8189 20.3939 41.3281C20.791 41.8373 21.3463 42.1998 21.9723 42.3583V45.2878C21.9723 45.4764 22.0472 45.6573 22.1806 45.7907C22.314 45.9241 22.4949 45.999 22.6835 45.999C22.8722 45.999 23.0531 45.9241 23.1864 45.7907C23.3198 45.6573 23.3948 45.4764 23.3948 45.2878V42.3583C24.0211 42.2001 24.5768 41.8378 24.9742 41.3286C25.3717 40.8193 25.5881 40.1922 25.5894 39.5463V13.0957C25.5893 12.9071 25.5143 12.7263 25.3809 12.5929L20.994 8.20727ZM12.3857 39.5463C12.3792 39.935 12.2203 40.3056 11.9432 40.5782C11.666 40.8508 11.2928 41.0035 10.9041 41.0035C10.5153 41.0035 10.1421 40.8508 9.86499 40.5782C9.58783 40.3056 9.42891 39.935 9.42247 39.5463V13.3903L12.3857 10.4271V39.5463ZM13.8081 12.3845V9.42125H19.7797V12.3845H13.8081ZM24.1653 39.5463C24.1589 39.935 24 40.3056 23.7228 40.5782C23.4457 40.8508 23.0725 41.0035 22.6837 41.0035C22.295 41.0035 21.9218 40.8508 21.6446 40.5782C21.3675 40.3056 21.2086 39.935 21.2021 39.5463V10.4271L24.1653 13.3903V39.5463Z" fill="#FFEA00"/>
<path d="M45.7917 12.5929L41.4064 8.20727C41.3614 8.16369 41.3108 8.12624 41.256 8.09591C41.2426 8.08819 41.23 8.08128 41.2154 8.07437C41.1609 8.04648 41.1029 8.02585 41.0431 8.01301H41.0313C40.9887 8.00473 40.9454 8.00038 40.902 8H33.5093C33.4653 8.00033 33.4215 8.00483 33.3784 8.01341H33.369C33.3087 8.02617 33.2503 8.04694 33.1955 8.07519C33.1825 8.08169 33.1699 8.0886 33.1573 8.09591C33.1022 8.12641 33.0514 8.16399 33.0061 8.20768L28.6208 12.5929C28.4874 12.7263 28.4124 12.9071 28.4124 13.0957V39.5463C28.4136 40.1922 28.63 40.8194 29.0274 41.3286C29.4249 41.8379 29.9807 42.2002 30.607 42.3583V45.2878C30.607 45.4764 30.682 45.6573 30.8153 45.7907C30.9487 45.9241 31.1296 45.999 31.3183 45.999C31.5069 45.999 31.6878 45.9241 31.8212 45.7907C31.9546 45.6573 32.0295 45.4764 32.0295 45.2878V42.3583C32.6558 42.2002 33.2116 41.8379 33.6091 41.3286C34.0065 40.8194 34.2229 40.1922 34.2242 39.5463V13.8069H40.192V39.5463C40.1931 40.192 40.4093 40.8189 40.8063 41.3281C41.2034 41.8373 41.7587 42.1998 42.3846 42.3583V45.2878C42.3846 45.4764 42.4596 45.6573 42.593 45.7907C42.7263 45.9241 42.9072 45.999 43.0959 45.999C43.2845 45.999 43.4654 45.9241 43.5988 45.7907C43.7322 45.6573 43.8071 45.4764 43.8071 45.2878V42.3583C44.4334 42.2002 44.9892 41.8379 45.3867 41.3286C45.7841 40.8194 46.0005 40.1922 46.0018 39.5463V13.0957C46.0015 13.0022 45.9828 12.9097 45.9468 12.8234C45.9107 12.7371 45.858 12.6588 45.7917 12.5929ZM32.798 39.5463C32.7916 39.935 32.6327 40.3056 32.3555 40.5782C32.0784 40.8508 31.7052 41.0035 31.3164 41.0035C30.9277 41.0035 30.5545 40.8508 30.2773 40.5782C30.0002 40.3056 29.8413 39.935 29.8348 39.5463V13.3903L32.798 10.4271V39.5463ZM34.2205 12.3845V9.42125H40.192V12.3845H34.2205ZM44.5777 39.5463C44.5712 39.935 44.4123 40.3056 44.1352 40.5782C43.858 40.8508 43.4848 41.0035 43.0961 41.0035C42.7073 41.0035 42.3342 40.8508 42.057 40.5782C41.7798 40.3056 41.6209 39.935 41.6145 39.5463V10.4271L44.5777 13.3903V39.5463Z" fill="#FFEA00"/>
<defs>
<filter id="filter0_f_28_208" x="0" y="0" width="54.0017" height="53.999" filterUnits="userSpaceOnUse" color-interpolation-filters="sRGB">
<feFlood flood-opacity="0" result="BackgroundImageFix"/>
<feBlend mode="normal" in="SourceGraphic" in2="BackgroundImageFix" result="shape"/>
<feGaussianBlur stdDeviation="4" result="effect1_foregroundBlur_28_208"/>
</filter>
</defs>
</svg>
