<svg width="56" height="57" viewBox="0 0 56 57" fill="none" xmlns="http://www.w3.org/2000/svg">
<g filter="url(#filter0_f_37_278)">
<path d="M42.6315 18.7563C45.5963 18.7563 48.0001 16.3485 48.0001 13.3782C48.0001 10.4081 45.5963 8 42.6315 8C39.6664 8 37.2629 10.4081 37.2629 13.3782C37.2662 16.3472 39.6677 18.753 42.6315 18.7563ZM42.6315 9.34454C44.8551 9.34454 46.658 11.1506 46.658 13.3782C46.658 15.606 44.8551 17.4118 42.6315 17.4118C40.4076 17.4118 38.6051 15.606 38.6051 13.3782C38.6071 11.1516 40.4086 9.34684 42.6315 9.34454Z" fill="#FFEA00"/>
<path d="M19.719 23.7409C20.5041 23.7422 21.2577 23.4303 21.8128 22.8736L27.8679 16.8071L31.9098 20.8562C33.0658 22.0142 34.9397 22.0142 36.0958 20.8562L36.1 20.8522C37.2528 19.6935 37.2528 17.8188 36.1 16.6601L30.2399 10.7912C28.9299 9.47879 26.8059 9.47879 25.4955 10.7912L17.6225 18.6775C16.7765 19.5264 16.5242 20.8023 16.9829 21.9105C17.442 23.0184 18.5213 23.7409 19.719 23.7409ZM18.5715 19.6308L26.4445 11.7415C27.2306 10.9543 28.5049 10.9543 29.2913 11.7415L35.1511 17.614C35.7809 18.2472 35.7809 19.2717 35.1511 19.9049L35.1468 19.9091C34.5144 20.5407 33.4911 20.5407 32.8587 19.9091L28.3424 15.3841C28.0802 15.1215 27.6556 15.1215 27.3934 15.3841L20.8632 21.923C20.222 22.5378 19.2104 22.5362 18.5715 21.9191C17.9433 21.2862 17.9433 20.2637 18.5715 19.6308Z" fill="#FFEA00"/>
<path d="M45.3157 25.4791H38.6049V22.1178C38.6049 21.846 38.4414 21.6011 38.1904 21.497C37.9398 21.393 37.6511 21.4504 37.4594 21.6424L33.4329 25.6761C33.3071 25.8021 33.2363 25.9731 33.2363 26.1514V28.8404C33.2363 29.9545 34.1374 30.8573 35.2496 30.8573H45.3157C46.7981 30.8573 48 29.6535 48 28.1682C48 26.6831 46.7981 25.4791 45.3157 25.4791ZM45.3157 29.5127H35.2496C34.879 29.5127 34.5785 29.2117 34.5785 28.8404V26.4297L37.2628 23.7407V26.1514C37.2628 26.5226 37.5633 26.8236 37.9339 26.8236H45.3157C46.0569 26.8236 46.6578 27.4257 46.6578 28.1682C46.6578 28.911 46.0569 29.5127 45.3157 29.5127Z" fill="#FFEA00"/>
<path d="M25.001 34.2859L21.761 31.0401C21.4946 30.788 21.0781 30.788 20.812 31.0401L8.86702 43.0067C7.71099 44.1645 7.71099 46.0418 8.86702 47.1996V47.2028C10.0234 48.3593 11.896 48.3593 13.0524 47.2028L24.9974 35.2366C25.2605 34.975 25.2618 34.5495 25.001 34.2859ZM12.1054 46.2525C11.4737 46.8841 10.4503 46.8841 9.81859 46.2525H9.81597C9.18388 45.62 9.18388 44.5939 9.81597 43.9613L21.2859 32.4661L23.5769 34.7619L12.1054 46.2525Z" fill="#FFEA00"/>
<path d="M28.493 27.2863C27.7485 26.5182 26.6481 26.2113 25.6143 26.4831C24.5802 26.7552 23.7728 27.564 23.5008 28.6C23.2292 29.6356 23.5352 30.7379 24.3023 31.484L29.5454 36.7352L23.1876 40.1293C21.7737 40.9385 21.2802 42.7416 22.085 44.1597L22.1803 44.3359C22.7125 45.258 23.6952 45.8259 24.7585 45.8256C25.2667 45.8262 25.7661 45.6933 26.2068 45.4399L34.4838 40.9805L35.5576 40.3627C36.4643 39.8424 37.0773 38.9282 37.2156 37.8903C37.3536 36.8527 37.001 35.8095 36.2621 35.0693L28.493 27.2863ZM35.8849 37.7147C35.8033 38.3364 35.4354 38.8839 34.8911 39.1938L25.5544 44.264C24.784 44.7062 23.8016 44.4459 23.3508 43.6798L23.2548 43.5035C22.8154 42.7354 23.0736 41.7562 23.8344 41.3058L30.9754 37.4947C31.1632 37.3946 31.2923 37.2111 31.3234 37.0004C31.3545 36.7897 31.2844 36.5766 31.1337 36.4259L25.2506 30.5334C24.6172 29.8989 24.6172 28.8701 25.2506 28.2356C25.884 27.6011 26.9109 27.6011 27.5443 28.2356L35.3168 36.0199C35.7617 36.4637 35.9721 37.0916 35.8849 37.7147Z" fill="#FFEA00"/>
</g>
<path d="M42.6315 18.7563C45.5963 18.7563 48.0001 16.3485 48.0001 13.3782C48.0001 10.4081 45.5963 8 42.6315 8C39.6664 8 37.2629 10.4081 37.2629 13.3782C37.2662 16.3472 39.6677 18.753 42.6315 18.7563ZM42.6315 9.34454C44.8551 9.34454 46.658 11.1506 46.658 13.3782C46.658 15.606 44.8551 17.4118 42.6315 17.4118C40.4076 17.4118 38.6051 15.606 38.6051 13.3782C38.6071 11.1516 40.4086 9.34684 42.6315 9.34454Z" fill="#FFEA00"/>
<path d="M19.719 23.7409C20.5041 23.7422 21.2577 23.4303 21.8128 22.8736L27.8679 16.8071L31.9098 20.8562C33.0658 22.0142 34.9397 22.0142 36.0958 20.8562L36.1 20.8522C37.2528 19.6935 37.2528 17.8188 36.1 16.6601L30.2399 10.7912C28.9299 9.47879 26.8059 9.47879 25.4955 10.7912L17.6225 18.6775C16.7765 19.5264 16.5242 20.8023 16.9829 21.9105C17.442 23.0184 18.5213 23.7409 19.719 23.7409ZM18.5715 19.6308L26.4445 11.7415C27.2306 10.9543 28.5049 10.9543 29.2913 11.7415L35.1511 17.614C35.7809 18.2472 35.7809 19.2717 35.1511 19.9049L35.1468 19.9091C34.5144 20.5407 33.4911 20.5407 32.8587 19.9091L28.3424 15.3841C28.0802 15.1215 27.6556 15.1215 27.3934 15.3841L20.8632 21.923C20.222 22.5378 19.2104 22.5362 18.5715 21.9191C17.9433 21.2862 17.9433 20.2637 18.5715 19.6308Z" fill="#FFEA00"/>
<path d="M45.3157 25.4791H38.6049V22.1178C38.6049 21.846 38.4414 21.6011 38.1904 21.497C37.9398 21.393 37.6511 21.4504 37.4594 21.6424L33.4329 25.6761C33.3071 25.8021 33.2363 25.9731 33.2363 26.1514V28.8404C33.2363 29.9545 34.1374 30.8573 35.2496 30.8573H45.3157C46.7981 30.8573 48 29.6535 48 28.1682C48 26.6831 46.7981 25.4791 45.3157 25.4791ZM45.3157 29.5127H35.2496C34.879 29.5127 34.5785 29.2117 34.5785 28.8404V26.4297L37.2628 23.7407V26.1514C37.2628 26.5226 37.5633 26.8236 37.9339 26.8236H45.3157C46.0569 26.8236 46.6578 27.4257 46.6578 28.1682C46.6578 28.911 46.0569 29.5127 45.3157 29.5127Z" fill="#FFEA00"/>
<path d="M25.001 34.2859L21.761 31.0401C21.4946 30.788 21.0781 30.788 20.812 31.0401L8.86702 43.0067C7.71099 44.1645 7.71099 46.0418 8.86702 47.1996V47.2028C10.0234 48.3593 11.896 48.3593 13.0524 47.2028L24.9974 35.2366C25.2605 34.975 25.2618 34.5495 25.001 34.2859ZM12.1054 46.2525C11.4737 46.8841 10.4503 46.8841 9.81859 46.2525H9.81597C9.18388 45.62 9.18388 44.5939 9.81597 43.9613L21.2859 32.4661L23.5769 34.7619L12.1054 46.2525Z" fill="#FFEA00"/>
<path d="M28.493 27.2863C27.7485 26.5182 26.6481 26.2113 25.6143 26.4831C24.5802 26.7552 23.7728 27.564 23.5008 28.6C23.2292 29.6356 23.5352 30.7379 24.3023 31.484L29.5454 36.7352L23.1876 40.1293C21.7737 40.9385 21.2802 42.7416 22.085 44.1597L22.1803 44.3359C22.7125 45.258 23.6952 45.8259 24.7585 45.8256C25.2667 45.8262 25.7661 45.6933 26.2068 45.4399L34.4838 40.9805L35.5576 40.3627C36.4643 39.8424 37.0773 38.9282 37.2156 37.8903C37.3536 36.8527 37.001 35.8095 36.2621 35.0693L28.493 27.2863ZM35.8849 37.7147C35.8033 38.3364 35.4354 38.8839 34.8911 39.1938L25.5544 44.264C24.784 44.7062 23.8016 44.4459 23.3508 43.6798L23.2548 43.5035C22.8154 42.7354 23.0736 41.7562 23.8344 41.3058L30.9754 37.4947C31.1632 37.3946 31.2923 37.2111 31.3234 37.0004C31.3545 36.7897 31.2844 36.5766 31.1337 36.4259L25.2506 30.5334C24.6172 29.8989 24.6172 28.8701 25.2506 28.2356C25.884 27.6011 26.9109 27.6011 27.5443 28.2356L35.3168 36.0199C35.7617 36.4637 35.9721 37.0916 35.8849 37.7147Z" fill="#FFEA00"/>
<defs>
<filter id="filter0_f_37_278" x="0" y="0" width="56.0002" height="56.0701" filterUnits="userSpaceOnUse" color-interpolation-filters="sRGB">
<feFlood flood-opacity="0" result="BackgroundImageFix"/>
<feBlend mode="normal" in="SourceGraphic" in2="BackgroundImageFix" result="shape"/>
<feGaussianBlur stdDeviation="4" result="effect1_foregroundBlur_37_278"/>
</filter>
</defs>
</svg>
