<svg width="56" height="40" viewBox="0 0 56 40" fill="none" xmlns="http://www.w3.org/2000/svg">
<g filter="url(#filter0_f_37_257)">
<path d="M8.19223 26.1068L9.48933 23.143C9.0427 19.6885 9.7873 16.1286 11.7228 12.5559C12.0572 11.938 12.8921 11.6898 13.5128 12.0224L14.0184 12.2907C15.6002 13.149 16.8115 13.3306 18.5121 12.9616C20.048 12.6343 21.4001 11.5581 22.1292 10.083C22.4513 9.43128 23.3226 9.15245 23.9547 9.50257C25.1412 10.1606 26.2564 10.9221 27.3919 11.7781C27.4054 11.7884 27.4218 11.7919 27.4346 11.8034C27.4399 11.8083 27.4417 11.8151 27.4468 11.8201C28.2566 12.4325 29.0756 13.0857 29.9472 13.8134C32.1221 15.638 34.6523 16.9198 37.2668 17.5207C38.5802 17.8272 39.9255 17.9619 41.3235 17.9203C41.7708 17.9089 42.2253 17.8279 42.7065 17.742C43.3682 17.6238 44.0583 17.5016 44.7835 17.5559C46.0409 17.6541 47.4923 18.4249 47.9009 19.9274C48.0016 20.3018 48.0226 20.7023 47.9766 21.1079C47.9763 21.1111 47.978 21.114 47.9777 21.1172C47.8609 22.6255 47.6016 23.7661 47.1855 24.6032C45.5347 27.9328 41.9849 29.0354 38.7881 29.8074C36.4836 30.3683 34.1389 30.6497 31.7883 30.6497C30.8741 30.6497 29.9589 30.6071 29.0453 30.5219C27.8116 30.4123 26.5854 30.2011 25.3998 29.9968C23.3518 29.6438 21.4163 29.309 19.4109 29.4447C18.5936 29.5026 17.7594 29.6243 16.9526 29.742C16.3312 29.8327 15.7105 29.9232 15.0907 29.9883C13.2254 30.1922 11.7585 30.0865 10.4776 29.6548C9.7563 29.4183 9.18505 29.0695 8.62184 28.5213C7.99507 27.903 7.82329 26.9309 8.19223 26.1068ZM46.2743 22.0368C46.6273 21.4541 46.7542 20.7949 46.6147 20.2751C46.3778 19.4051 45.4457 18.9444 44.6815 18.8846C44.5936 18.8781 44.5055 18.8748 44.418 18.8748C43.9427 18.8748 43.4559 18.9616 42.9409 19.0538C42.432 19.1446 41.9057 19.2386 41.3603 19.2523C39.8764 19.2972 38.3896 19.1511 36.9662 18.8192C35.665 18.52 34.3861 18.0584 33.1539 17.4623C32.6979 18.0291 32.1782 18.5729 31.5978 19.0814C31.4712 19.1924 31.3147 19.2467 31.1589 19.2467C30.9734 19.2467 30.7893 19.17 30.6575 19.0197C30.4148 18.7428 30.4428 18.3218 30.7193 18.0794C31.1724 17.6823 31.5682 17.2579 31.9358 16.8233C31.2929 16.4532 30.6675 16.0435 30.063 15.5971C29.4443 16.1461 28.7762 16.6438 28.0291 17.1026C27.9201 17.1693 27.7997 17.2013 27.681 17.2013C27.4571 17.2013 27.2382 17.0884 27.1126 16.8837C26.92 16.57 27.018 16.1598 27.3316 15.9673C27.9394 15.594 28.489 15.1948 28.9992 14.7595C28.3221 14.1952 27.6781 13.68 27.0452 13.1899C26.4329 13.7888 25.7386 14.3287 24.9657 14.7937C24.858 14.8584 24.7395 14.889 24.6227 14.889C24.3966 14.889 24.176 14.7742 24.0511 14.5663C23.8614 14.2507 23.9632 13.8415 24.2785 13.6517C24.9014 13.2772 25.4667 12.8501 25.9694 12.3797C25.0945 11.7473 24.2279 11.176 23.3239 10.6732C22.4159 12.5107 20.7209 13.8534 18.7922 14.2644C16.7911 14.6983 15.2356 14.4674 13.3837 13.4624L12.8947 13.1907C11.1072 16.49 10.4009 19.7581 10.7936 22.9107C11.4209 23.2712 12.2118 23.4703 13.1488 23.5028C13.9079 23.5298 14.6539 23.4497 15.4506 23.3674C15.7408 23.3375 16.031 23.3072 16.3229 23.2822C19.2621 23.0352 22.4439 23.2913 26.1857 24.0838C27.1936 24.2976 28.1983 24.5598 29.1698 24.8136C31.2152 25.3478 33.1475 25.8524 35.1743 25.9647C35.5404 25.9855 35.908 25.9962 36.2753 25.9962C39.0358 25.9962 41.5455 25.41 43.7358 24.2534C44.9 23.642 45.7541 22.8963 46.2743 22.0368ZM9.55477 27.5692C9.96728 27.971 10.3675 28.216 10.8981 28.39C11.9938 28.759 13.2806 28.8468 14.9483 28.663C15.5538 28.5995 16.1566 28.5114 16.7604 28.4232C17.591 28.3019 18.4503 28.1766 19.3193 28.1151C21.4874 27.9706 23.5907 28.3327 25.6264 28.6834C26.7853 28.8829 27.9839 29.0895 29.1661 29.1946C32.2842 29.4864 35.416 29.2564 38.4742 28.512C41.2882 27.8325 44.138 26.9628 45.653 24.6014C45.2588 24.8975 44.8369 25.18 44.3564 25.4323C41.974 26.6908 39.2551 27.3288 36.2752 27.3288C35.8828 27.3288 35.4902 27.3174 35.0998 27.2953C32.9398 27.1756 30.8521 26.6303 28.833 26.1029C27.8762 25.853 26.8868 25.5947 25.9095 25.3874C22.2975 24.6225 19.2367 24.3756 16.4358 24.6099C16.1527 24.6343 15.8703 24.6636 15.588 24.6929C14.7834 24.7759 13.9551 24.8617 13.1039 24.8348C12.0982 24.7995 11.2151 24.5981 10.4643 24.2386L9.41063 26.6463C9.27008 26.9602 9.33192 27.3499 9.55477 27.5692Z" fill="#FFEA00"/>
</g>
<path d="M8.19223 26.1068L9.48933 23.143C9.0427 19.6885 9.7873 16.1286 11.7228 12.5559C12.0572 11.938 12.8921 11.6898 13.5128 12.0224L14.0184 12.2907C15.6002 13.149 16.8115 13.3306 18.5121 12.9616C20.048 12.6343 21.4001 11.5581 22.1292 10.083C22.4513 9.43128 23.3226 9.15245 23.9547 9.50257C25.1412 10.1606 26.2564 10.9221 27.3919 11.7781C27.4054 11.7884 27.4218 11.7919 27.4346 11.8034C27.4399 11.8083 27.4417 11.8151 27.4468 11.8201C28.2566 12.4325 29.0756 13.0857 29.9472 13.8134C32.1221 15.638 34.6523 16.9198 37.2668 17.5207C38.5802 17.8272 39.9255 17.9619 41.3235 17.9203C41.7708 17.9089 42.2253 17.8279 42.7065 17.742C43.3682 17.6238 44.0583 17.5016 44.7835 17.5559C46.0409 17.6541 47.4923 18.4249 47.9009 19.9274C48.0016 20.3018 48.0226 20.7023 47.9766 21.1079C47.9763 21.1111 47.978 21.114 47.9777 21.1172C47.8609 22.6255 47.6016 23.7661 47.1855 24.6032C45.5347 27.9328 41.9849 29.0354 38.7881 29.8074C36.4836 30.3683 34.1389 30.6497 31.7883 30.6497C30.8741 30.6497 29.9589 30.6071 29.0453 30.5219C27.8116 30.4123 26.5854 30.2011 25.3998 29.9968C23.3518 29.6438 21.4163 29.309 19.4109 29.4447C18.5936 29.5026 17.7594 29.6243 16.9526 29.742C16.3312 29.8327 15.7105 29.9232 15.0907 29.9883C13.2254 30.1922 11.7585 30.0865 10.4776 29.6548C9.7563 29.4183 9.18505 29.0695 8.62184 28.5213C7.99507 27.903 7.82329 26.9309 8.19223 26.1068ZM46.2743 22.0368C46.6273 21.4541 46.7542 20.7949 46.6147 20.2751C46.3778 19.4051 45.4457 18.9444 44.6815 18.8846C44.5936 18.8781 44.5055 18.8748 44.418 18.8748C43.9427 18.8748 43.4559 18.9616 42.9409 19.0538C42.432 19.1446 41.9057 19.2386 41.3603 19.2523C39.8764 19.2972 38.3896 19.1511 36.9662 18.8192C35.665 18.52 34.3861 18.0584 33.1539 17.4623C32.6979 18.0291 32.1782 18.5729 31.5978 19.0814C31.4712 19.1924 31.3147 19.2467 31.1589 19.2467C30.9734 19.2467 30.7893 19.17 30.6575 19.0197C30.4148 18.7428 30.4428 18.3218 30.7193 18.0794C31.1724 17.6823 31.5682 17.2579 31.9358 16.8233C31.2929 16.4532 30.6675 16.0435 30.063 15.5971C29.4443 16.1461 28.7762 16.6438 28.0291 17.1026C27.9201 17.1693 27.7997 17.2013 27.681 17.2013C27.4571 17.2013 27.2382 17.0884 27.1126 16.8837C26.92 16.57 27.018 16.1598 27.3316 15.9673C27.9394 15.594 28.489 15.1948 28.9992 14.7595C28.3221 14.1952 27.6781 13.68 27.0452 13.1899C26.4329 13.7888 25.7386 14.3287 24.9657 14.7937C24.858 14.8584 24.7395 14.889 24.6227 14.889C24.3966 14.889 24.176 14.7742 24.0511 14.5663C23.8614 14.2507 23.9632 13.8415 24.2785 13.6517C24.9014 13.2772 25.4667 12.8501 25.9694 12.3797C25.0945 11.7473 24.2279 11.176 23.3239 10.6732C22.4159 12.5107 20.7209 13.8534 18.7922 14.2644C16.7911 14.6983 15.2356 14.4674 13.3837 13.4624L12.8947 13.1907C11.1072 16.49 10.4009 19.7581 10.7936 22.9107C11.4209 23.2712 12.2118 23.4703 13.1488 23.5028C13.9079 23.5298 14.6539 23.4497 15.4506 23.3674C15.7408 23.3375 16.031 23.3072 16.3229 23.2822C19.2621 23.0352 22.4439 23.2913 26.1857 24.0838C27.1936 24.2976 28.1983 24.5598 29.1698 24.8136C31.2152 25.3478 33.1475 25.8524 35.1743 25.9647C35.5404 25.9855 35.908 25.9962 36.2753 25.9962C39.0358 25.9962 41.5455 25.41 43.7358 24.2534C44.9 23.642 45.7541 22.8963 46.2743 22.0368ZM9.55477 27.5692C9.96728 27.971 10.3675 28.216 10.8981 28.39C11.9938 28.759 13.2806 28.8468 14.9483 28.663C15.5538 28.5995 16.1566 28.5114 16.7604 28.4232C17.591 28.3019 18.4503 28.1766 19.3193 28.1151C21.4874 27.9706 23.5907 28.3327 25.6264 28.6834C26.7853 28.8829 27.9839 29.0895 29.1661 29.1946C32.2842 29.4864 35.416 29.2564 38.4742 28.512C41.2882 27.8325 44.138 26.9628 45.653 24.6014C45.2588 24.8975 44.8369 25.18 44.3564 25.4323C41.974 26.6908 39.2551 27.3288 36.2752 27.3288C35.8828 27.3288 35.4902 27.3174 35.0998 27.2953C32.9398 27.1756 30.8521 26.6303 28.833 26.1029C27.8762 25.853 26.8868 25.5947 25.9095 25.3874C22.2975 24.6225 19.2367 24.3756 16.4358 24.6099C16.1527 24.6343 15.8703 24.6636 15.588 24.6929C14.7834 24.7759 13.9551 24.8617 13.1039 24.8348C12.0982 24.7995 11.2151 24.5981 10.4643 24.2386L9.41063 26.6463C9.27008 26.9602 9.33192 27.3499 9.55477 27.5692Z" fill="#FFEA00"/>
<defs>
<filter id="filter0_f_37_257" x="0" y="1.35034" width="55.9998" height="37.2993" filterUnits="userSpaceOnUse" color-interpolation-filters="sRGB">
<feFlood flood-opacity="0" result="BackgroundImageFix"/>
<feBlend mode="normal" in="SourceGraphic" in2="BackgroundImageFix" result="shape"/>
<feGaussianBlur stdDeviation="4" result="effect1_foregroundBlur_37_257"/>
</filter>
</defs>
</svg>
