<svg width="56" height="56" viewBox="0 0 56 56" fill="none" xmlns="http://www.w3.org/2000/svg">
<g filter="url(#filter0_f_28_216)">
<path d="M44.4812 16.6585C43.5556 15.3215 42.4729 14.1005 41.2562 13.0217C41.2302 12.9986 41.2021 12.9778 41.1762 12.9549C40.7807 12.6076 40.3681 12.2808 39.9464 11.9652C39.4203 11.5716 38.8798 11.1962 38.3168 10.8557C30.4413 6.12705 20.3575 7.36695 13.862 13.8628C7.36645 20.3586 6.12716 30.4424 10.8564 38.3179C12.5485 41.1102 14.8904 43.452 17.683 45.1439C25.5585 49.8728 35.6426 48.6329 42.1381 42.1371C48.6336 35.6409 49.8729 25.5572 45.1434 17.6817C44.9332 17.3338 44.7122 16.9929 44.4812 16.6585ZM17.9366 43.7206C17.8384 43.6571 17.7392 43.5949 17.6421 43.5299C17.5179 43.4466 17.394 43.3632 17.272 43.2772C17.0931 43.1508 16.9177 43.0199 16.7434 42.8875C16.6314 42.8026 16.5182 42.719 16.4083 42.6314C16.2197 42.4816 16.0363 42.3257 15.8538 42.1688C15.7638 42.0913 15.6713 42.0168 15.5828 41.9378C15.3238 41.7065 15.0708 41.4681 14.8242 41.2234L14.7769 41.1761C14.5324 40.9304 14.2947 40.6784 14.064 40.4193C13.9801 40.3253 13.9007 40.2273 13.8187 40.1315C13.6676 39.9554 13.5168 39.7781 13.3722 39.5968C13.28 39.4812 13.1921 39.3625 13.103 39.2447C12.9752 39.0759 12.8485 38.9065 12.7262 38.7338C12.637 38.6075 12.5507 38.479 12.4646 38.3505C12.4011 38.2559 12.3404 38.1595 12.2788 38.0637L38.0632 12.279C38.1614 12.3421 38.2606 12.4044 38.3577 12.4697C38.4819 12.5527 38.6058 12.6363 38.7278 12.7224C38.9067 12.8484 39.0821 12.9796 39.2564 13.1118C39.3684 13.1969 39.4816 13.2805 39.5915 13.3681C39.7801 13.518 39.9635 13.6739 40.146 13.8308C40.236 13.908 40.3284 13.9827 40.4169 14.0618C40.676 14.2931 40.929 14.5311 41.1756 14.7762L41.2229 14.8235C41.4673 15.0691 41.7051 15.3212 41.9358 15.5803C42.0197 15.6743 42.099 15.7722 42.1811 15.8681C42.3322 16.0441 42.4829 16.2211 42.6276 16.4027C42.7198 16.5184 42.8076 16.6371 42.8968 16.7549C43.0246 16.9233 43.1513 17.0927 43.2736 17.2657C43.3627 17.3924 43.4491 17.5206 43.5352 17.649C43.5986 17.7436 43.6594 17.8401 43.721 17.9359L17.9366 43.7206ZM27.9999 9.33347C31.0995 9.33408 34.1506 10.1062 36.8773 11.5801L11.5796 36.8772C8.45225 31.0927 8.59904 24.0896 11.9663 18.4413C15.3335 12.7932 21.4241 9.33347 27.9999 9.33347ZM27.9999 46.6661C24.9003 46.6652 21.8492 45.8931 19.1225 44.4194L44.4202 19.1224C47.5475 24.9066 47.4008 31.9099 44.0335 37.558C40.6663 43.2064 34.5757 46.6661 27.9999 46.6661Z" fill="#FFEA00"/>
</g>
<path d="M44.4812 16.6585C43.5556 15.3215 42.4729 14.1005 41.2562 13.0217C41.2302 12.9986 41.2021 12.9778 41.1762 12.9549C40.7807 12.6076 40.3681 12.2808 39.9464 11.9652C39.4203 11.5716 38.8798 11.1962 38.3168 10.8557C30.4413 6.12705 20.3575 7.36695 13.862 13.8628C7.36645 20.3586 6.12716 30.4424 10.8564 38.3179C12.5485 41.1102 14.8904 43.452 17.683 45.1439C25.5585 49.8728 35.6426 48.6329 42.1381 42.1371C48.6336 35.6409 49.8729 25.5572 45.1434 17.6817C44.9332 17.3338 44.7122 16.9929 44.4812 16.6585ZM17.9366 43.7206C17.8384 43.6571 17.7392 43.5949 17.6421 43.5299C17.5179 43.4466 17.394 43.3632 17.272 43.2772C17.0931 43.1508 16.9177 43.0199 16.7434 42.8875C16.6314 42.8026 16.5182 42.719 16.4083 42.6314C16.2197 42.4816 16.0363 42.3257 15.8538 42.1688C15.7638 42.0913 15.6713 42.0168 15.5828 41.9378C15.3238 41.7065 15.0708 41.4681 14.8242 41.2234L14.7769 41.1761C14.5324 40.9304 14.2947 40.6784 14.064 40.4193C13.9801 40.3253 13.9007 40.2273 13.8187 40.1315C13.6676 39.9554 13.5168 39.7781 13.3722 39.5968C13.28 39.4812 13.1921 39.3625 13.103 39.2447C12.9752 39.0759 12.8485 38.9065 12.7262 38.7338C12.637 38.6075 12.5507 38.479 12.4646 38.3505C12.4011 38.2559 12.3404 38.1595 12.2788 38.0637L38.0632 12.279C38.1614 12.3421 38.2606 12.4044 38.3577 12.4697C38.4819 12.5527 38.6058 12.6363 38.7278 12.7224C38.9067 12.8484 39.0821 12.9796 39.2564 13.1118C39.3684 13.1969 39.4816 13.2805 39.5915 13.3681C39.7801 13.518 39.9635 13.6739 40.146 13.8308C40.236 13.908 40.3284 13.9827 40.4169 14.0618C40.676 14.2931 40.929 14.5311 41.1756 14.7762L41.2229 14.8235C41.4673 15.0691 41.7051 15.3212 41.9358 15.5803C42.0197 15.6743 42.099 15.7722 42.1811 15.8681C42.3322 16.0441 42.4829 16.2211 42.6276 16.4027C42.7198 16.5184 42.8076 16.6371 42.8968 16.7549C43.0246 16.9233 43.1513 17.0927 43.2736 17.2657C43.3627 17.3924 43.4491 17.5206 43.5352 17.649C43.5986 17.7436 43.6594 17.8401 43.721 17.9359L17.9366 43.7206ZM27.9999 9.33347C31.0995 9.33408 34.1506 10.1062 36.8773 11.5801L11.5796 36.8772C8.45225 31.0927 8.59904 24.0896 11.9663 18.4413C15.3335 12.7932 21.4241 9.33347 27.9999 9.33347ZM27.9999 46.6661C24.9003 46.6652 21.8492 45.8931 19.1225 44.4194L44.4202 19.1224C47.5475 24.9066 47.4008 31.9099 44.0335 37.558C40.6663 43.2064 34.5757 46.6661 27.9999 46.6661Z" fill="#FFEA00"/>
<defs>
<filter id="filter0_f_28_216" x="0" y="0" width="56" height="55.9998" filterUnits="userSpaceOnUse" color-interpolation-filters="sRGB">
<feFlood flood-opacity="0" result="BackgroundImageFix"/>
<feBlend mode="normal" in="SourceGraphic" in2="BackgroundImageFix" result="shape"/>
<feGaussianBlur stdDeviation="4" result="effect1_foregroundBlur_28_216"/>
</filter>
</defs>
</svg>
