<svg width="20" height="20" viewBox="0 0 20 20" fill="none" xmlns="http://www.w3.org/2000/svg">
<path d="M16.2883 14.9617C16.4644 15.1378 16.5634 15.3767 16.5634 15.6258C16.5634 15.8749 16.4644 16.1137 16.2883 16.2898C16.1122 16.466 15.8733 16.5649 15.6242 16.5649C15.3752 16.5649 15.1363 16.466 14.9602 16.2898L10 11.3281L5.03831 16.2883C4.86219 16.4644 4.62332 16.5633 4.37425 16.5633C4.12517 16.5633 3.8863 16.4644 3.71018 16.2883C3.53406 16.1122 3.43512 15.8733 3.43512 15.6242C3.43512 15.3751 3.53406 15.1363 3.71018 14.9602L8.6719 10L3.71175 5.03828C3.53563 4.86216 3.43668 4.62329 3.43668 4.37422C3.43668 4.12515 3.53563 3.88628 3.71175 3.71016C3.88787 3.53404 4.12674 3.43509 4.37581 3.43509C4.62488 3.43509 4.86375 3.53404 5.03987 3.71016L10 8.67188L14.9617 3.70938C15.1379 3.53326 15.3767 3.43431 15.6258 3.43431C15.8749 3.43431 16.1137 3.53326 16.2899 3.70938C16.466 3.8855 16.5649 4.12437 16.5649 4.37344C16.5649 4.62251 16.466 4.86138 16.2899 5.0375L11.3282 10L16.2883 14.9617Z" fill="white"/>
</svg>
